inDegrees=no
num_controls=7
num_derivatives=13
num_iterations=152
num_multipliers=7
num_parameters=0
num_slacks=7
num_states=26
objective=0.477365
objective_accelerations=0.043805
objective_balance=0.003615
objective_effort=0.040053
objective_height=0.384221
objective_ligament=0.005672
solver_duration=2043.583327
status=Solve_Succeeded
success=true
DataType=double
version=3
OpenSimVersion=4.5
endheader
time	/jointset/ground_pelvis/pelvis_tilt/value	/jointset/ground_pelvis/pelvis_tx/value	/jointset/ground_pelvis/pelvis_ty/value	/jointset/hip_l/hip_flexion_l/value	/jointset/hip_l/hip_adduction_l/value	/jointset/hip_l/hip_rotation_l/value	/jointset/back/lumbar_extension/value	/jointset/patellofemoral_l/patellar_flexion_l/value	/jointset/knee_l/knee_flexion_l/value	/jointset/knee_l/knee_adduction_l/value	/jointset/knee_l/knee_rotation_l/value	/jointset/ankle_l/ankle_angle_l/value	/jointset/subtalar_l/subtalar_angle_l/value	/jointset/ground_pelvis/pelvis_tilt/speed	/jointset/ground_pelvis/pelvis_tx/speed	/jointset/ground_pelvis/pelvis_ty/speed	/jointset/hip_l/hip_flexion_l/speed	/jointset/hip_l/hip_adduction_l/speed	/jointset/hip_l/hip_rotation_l/speed	/jointset/back/lumbar_extension/speed	/jointset/patellofemoral_l/patellar_flexion_l/speed	/jointset/knee_l/knee_flexion_l/speed	/jointset/knee_l/knee_adduction_l/speed	/jointset/knee_l/knee_rotation_l/speed	/jointset/ankle_l/ankle_angle_l/speed	/jointset/subtalar_l/subtalar_angle_l/speed	/forceset/tau_hip_flexion_l	/forceset/tau_hip_adduction_l	/forceset/tau_hip_rotation_l	/forceset/tau_knee_flexion_l	/forceset/tau_ankle_angle_l	/forceset/tau_subtalar_angle_l	/forceset/tau_lumbar_extension	lambda_cid13_p0	lambda_cid13_p1	lambda_cid13_p2	lambda_cid13_p3	lambda_cid13_p4	lambda_cid13_p5	lambda_cid14_p0	/jointset/ground_pelvis/pelvis_tilt/accel	/jointset/ground_pelvis/pelvis_tx/accel	/jointset/ground_pelvis/pelvis_ty/accel	/jointset/hip_l/hip_flexion_l/accel	/jointset/hip_l/hip_adduction_l/accel	/jointset/hip_l/hip_rotation_l/accel	/jointset/back/lumbar_extension/accel	/jointset/patellofemoral_l/patellar_flexion_l/accel	/jointset/knee_l/knee_flexion_l/accel	/jointset/knee_l/knee_adduction_l/accel	/jointset/knee_l/knee_rotation_l/accel	/jointset/ankle_l/ankle_angle_l/accel	/jointset/subtalar_l/subtalar_angle_l/accel	gamma_cid13_p0	gamma_cid13_p1	gamma_cid13_p2	gamma_cid13_p3	gamma_cid13_p4	gamma_cid13_p5	gamma_cid14_p0
1	-0.105069037077303	-0.05770413596368448	0.6860183563559299	1.312069258833411	-0.3285991070090932	0.06990408726073893	-0.9599310825353675	1.388613791492094	1.388613791492063	-0.06766930393490624	-0.1745328383232814	0.2786522786662982	0.06397888504678281	0.1035117260079856	0.02575077339668416	0.07015146726809478	-0.2996428005078433	-0.007077988515664169	-0.06584715462146409	-0.0001422937269305833	-0.1627653107364445	-0.1627653107364206	-0.002004972396724472	-1.414869806170807e-05	0.02437825396270595	0.002447213450294847	-0.369026005658496	0.01306840102617199	0.001131485247772528	-0.3751720243416041	0.0367289601266654	0.02948657909798585	0.4232640978171079	-39.16038291242243	-5.38011750271978	-0.2467379427047308	13.6735717054464	-798.3760377924679	-73.35784991766245	-0.04170106581740995	0.8105439346463823	-0.01065646655342647	1.521616480635018	-4.901195915822646	-0.1198632138909939	-1.661783540174339	0.01164460772900533	-4.965505848833143	-4.965505848833504	-0.3357462192634497	-0.01681712556999874	-1.227422769734066	-0.6711389074233419	-9.351591719147634e-09	1.863878520971563e-08	6.743225074992636e-08	6.364807179806055e-09	-2.414775588412866e-08	1.233462671724358e-07	-1.715173905373539e-08
1.01	-0.1039938011933586	-0.05744709193162671	0.6867957215846081	1.308828693480412	-0.3286751234168233	0.06916172942268636	-0.9599310885968813	1.386738286796706	1.386738286796655	-0.06770422280885648	-0.1745328883738868	0.2788348329805676	0.06397088282164273	0.1115320503486055	0.02566578239903371	0.08530887515439588	-0.3484447012825999	-0.008116417347499962	-0.08261443548407485	0.000175718572718399	-0.2123243818573035	-0.2123243818572806	-0.004978433267188837	2.743723577392371e-06	0.012122691232386	-0.004040254012567131	-0.3683548262149895	0.01324549680571382	0.001053605832345353	-0.3748298796748837	0.03651290958346731	0.02965268492880289	0.4230240197748539	-39.19272833419283	-5.463766107270168	-0.2137871107730445	13.53272883260708	-798.044122933342	-73.44038337339919	-0.0417339587446568	0.7972645698491801	-0.006255030880114268	1.51089126060021	-4.86585473076085	-0.09450955209315452	-1.682721846973702	0.04722685338831344	-4.949416065659305	-4.949416065659237	-0.2781018045361884	0.01075660047883076	-1.226110880099243	-0.6364532331948628	-1.677700774718385e-08	1.215214575557299e-08	9.678630991939682e-08	1.480409709455628e-08	-3.085749532230368e-08	1.43652671324259e-07	-2.346369113345654e-08
1.02	-0.1028384644887925	-0.05719066473244727	0.6877242785557439	1.305100875605173	-0.3287612594797244	0.06825199447847376	-0.9599268551889407	1.384367529725721	1.384367529725649	-0.06776886744823107	-0.1745328066653888	0.2788945340964502	0.06389822540837858	0.1195318901324017	0.02562740682101511	0.1003898157595974	-0.3970933049557037	-0.009101919549867048	-0.09932257585345607	0.000707623364586024	-0.2618157858560438	-0.2618157858560211	-0.007950125481583527	1.220312313517535e-05	-0.0001923857146655382	-0.01048382417451871	-0.3676836467714826	0.01342259258525583	0.0009757264169175091	-0.3744877350081634	0.03629685904026903	0.02981879075962009	0.4227839417326003	-39.23683952170008	-5.543732575420836	-0.1832762064971088	13.45087888287595	-797.8612699910088	-73.49792531416963	-0.04176653614317947	0.8064470232816405	-0.001333382627054801	1.506323024415097	-4.870536495492099	-0.1092778879972527	-1.649955441528425	0.05442310617272521	-4.951972424409388	-4.951972424409614	-0.3353924880495144	-0.01830372998626247	-1.239325613080386	-0.6623594472412616	-2.412129760456697e-08	3.144254548692147e-09	1.247270598581707e-07	2.194679159303982e-08	-3.775951535771458e-08	1.615195804174545e-07	-2.983171013962208e-08
1.03	-0.1016036339561499	-0.05693410813445814	0.6888032382377347	1.300887482932729	-0.3288569662759677	0.06717555512046483	-0.9599142115055193	1.38150232231147	1.381502322311443	-0.06786322854968331	-0.1745326247007122	0.2788311969855563	0.06376157258726876	0.1273916914960966	0.02572001738018872	0.1153872854903164	-0.4455476367007297	-0.01003136675969262	-0.1159517144551386	0.002057770239389927	-0.3112028592341768	-0.3112028592341785	-0.01092253505243652	2.125107532064393e-05	-0.01244421963084833	-0.01682111995643895	-0.3685857086281509	0.01373595860453019	0.0008572648876790318	-0.3736188633504444	0.0359891935537802	0.03010375465680326	0.4244256190454143	-39.33970564792493	-5.680623005225798	-0.1258807216135431	12.86537478632889	-798.6194073948868	-73.55553451567644	-0.0418029601700752	0.7693654551472544	0.01997982415679497	1.494224700618075	-4.827246463284128	-0.08358137031532809	-1.667384825314893	0.2108090160859558	-4.928641851850619	-4.928641851854136	-0.2782496272717639	0.01010357800718942	-1.213491724801708	-0.6155884589189285	-3.14647596438822e-08	-5.889363716890117e-09	1.526533882741823e-07	2.907625552605125e-08	-4.466349744003604e-08	1.793615967039293e-07	-3.620030125728196e-08
1.04	-0.1002914816574238	-0.05667554112108381	0.6900317257676765	1.296190673952978	-0.3289617281908773	0.06593322602527357	-0.9598809666457594	1.37814393075197	1.378143930751989	-0.0679873306339778	-0.1745324333524762	0.2786462656467175	0.06356231204528943	0.1349962433491451	0.02602948989805246	0.1302953853497456	-0.493776566416807	-0.01091294328312289	-0.1325005232898905	0.004827858632263167	-0.3604526149057246	-0.3604526149057495	-0.01389832205003241	1.40798349555835e-05	-0.02451123130361049	-0.02300536834842021	-0.36948777048482	0.01404932462380432	0.0007388033584413566	-0.3727499916927256	0.0356815280672914	0.0303887185539861	0.4260672963582277	-39.4545497142019	-5.813749419755061	-0.07098930837690433	12.33708256757816	-799.5305752076744	-73.58854372442626	-0.04183791673548636	0.7553971211523473	0.04203900911097232	1.488449050157111	-4.825456089702355	-0.0997037507181924	-1.633889488142311	0.3384114097865924	-4.924508883092337	-4.924508883092328	-0.3360679733980969	-0.02154756849637228	-1.202361164396258	-0.6317499692534683	-3.544371093004881e-08	-1.745501709156874e-08	1.784304185549741e-07	2.954213371843936e-08	-5.024567014355563e-08	1.853477718003861e-07	-4.138906258641227e-08
1.05	-0.09890454062232866	-0.05641287150584815	0.6914087630916971	1.291012938772903	-0.3290750128047323	0.06452586340869518	-0.9598134890323727	1.374293765731485	1.374293765731513	-0.06814119357344228	-0.1745323734863422	0.2783413728860157	0.06330196335978307	0.1423495771914428	0.02653290365923999	0.1450885800713314	-0.5417073451048695	-0.01172906602515511	-0.1489570437038349	0.008849993172034774	-0.4095537499946316	-0.4095537499946589	-0.01686772300623041	-7.713102643138921e-07	-0.03645769721230269	-0.02903771909643213	-0.3694677960045042	0.01433286855265935	0.0005895010957729393	-0.3717759636235244	0.03562718896206171	0.03072104761936099	0.4267805937846538	-39.43917435747964	-5.996044288666677	-0.001637060309321743	11.84247159198631	-799.6261988043399	-73.68719898025427	-0.04189096354960492	0.7189402824703703	0.05876909870420879	1.471218562426182	-4.767424928417382	-0.07035038977630552	-1.649327901579525	0.4614638451180538	-4.898910582072789	-4.89891058207316	-0.2764189669744788	0.008792000095776799	-1.189348484849041	-0.5849993970614286	-3.931752125517955e-08	-2.909979656340662e-08	2.041402832690403e-07	2.979977485643303e-08	-5.578653630398768e-08	1.909634518596549e-07	-4.654095423465102e-08
1.06	-0.0974453384954701	-0.05614431244518429	0.692933025138787	1.285357788571936	-0.3291960154167736	0.06295437667126536	-0.9597003201997792	1.369953390408055	1.36995339040809	-0.0683245590845175	-0.1745324129541331	0.2779173036300782	0.0629820868128993	0.1494484617018158	0.02720737898369054	0.1597403299635926	-0.5892595705952994	-0.01245654292041004	-0.1653253474601404	0.01396610247363077	-0.4584946754948548	-0.4584946754948845	-0.01979883637218149	-5.786950261233292e-06	-0.04834653035072848	-0.03491094062389908	-0.3694478215241885	0.01461641248151407	0.0004401988331060283	-0.3708019355543231	0.03557284985683195	0.03105337668473539	0.4274938912110799	-39.43588959138935	-6.174526231700955	0.0651699682795337	11.40269521348013	-799.8772850680352	-73.76275600057717	-0.04194175183354052	0.7045072547673884	0.07625132176357535	1.460160084292192	-4.749745450175847	-0.08197458136273444	-1.616246156614539	0.5572063621514701	-4.892466965355558	-4.892466965355536	-0.328410455348713	-0.01958046745177852	-1.190834610342973	-0.5999241251444748	-4.431749976978212e-08	-4.137867806112614e-08	2.282545436961242e-07	3.171987252857424e-08	-6.153178666870323e-08	1.971220213957464e-07	-5.180825042974389e-08
1.07	-0.09591632805305217	-0.05586812007564444	0.6946030436236268	1.279229012864761	-0.3293238409967695	0.06121978608167236	-0.9595305516040343	1.365124519951199	1.365124519951248	-0.06853714100051138	-0.174532466541399	0.2773746571601202	0.06260430348994078	0.1563191051984027	0.0280629665919295	0.1742344051141694	-0.6364312334293055	-0.01309238021400158	-0.1815700264996913	0.02016869203430645	-0.5072419598695256	-0.5072419598695338	-0.02271479315353479	-4.86417133813277e-06	-0.06017072386778485	-0.04061539578908085	-0.3692294096781744	0.01491604055299317	0.0002585306668186171	-0.3695259127616296	0.03560019620579732	0.03146344785899704	0.4280524680754673	-39.37619505733102	-6.40671272709858	0.1520348785163227	10.85374619978323	-799.7652354915342	-73.88470074971556	-0.04200305216211019	0.6731607075025587	0.09500000458405423	1.439673407924212	-4.691231908608571	-0.05198579794333245	-1.625214612560725	0.6789465568713897	-4.860229281592823	-4.86022928158964	-0.272805662349898	0.00999380770859614	-1.176409775448302	-0.5511779114159854	-4.937738084765449e-08	-5.369128839000958e-08	2.522839315547515e-07	3.372839873976586e-08	-6.728790853364662e-08	2.033094680316688e-07	-5.708168516456303e-08
